# xmcd
#
# Track frame offsets: 
#        150
#        17885
#        27701
#        87602
#        102794
#        125515
#        135417
#        159339
#        173230
#        189047
#        204562
#        219723
#        235587
#
# Disc length: 3551 seconds
#
# Revision: 0
# Processed by: cddbd v1.5.2PL0 Copyright (c) Steve Scherf et al.
# Submitted via: ExactAudioCopy v0.95a3
#
DISCID=ac0ddd0d
DTITLE=Ami Winehouse - Frank
DYEAR=2006
DGENRE=R&B
TTITLE0=Intro
TTITLE1=Stronger Than Me
TTITLE2=You Sent Me Flying
TTITLE3=Know You Now
TTITLE4=Fuck Me Pumps
TTITLE5=I Heard Love Is Blind
TTITLE6=Moody's Mood For Love
TTITLE7=(There Is) No Greater Love
TTITLE8=In My Bed
TTITLE9=Take The Box
TTITLE10=October Song
TTITLE11=What Is It About Men
TTITLE12=Help Yourself-Amy Amy Amy-Outro
EXTD=
EXTT0=Intro
EXTT1=
EXTT2=
EXTT3=
EXTT4=
EXTT5=
EXTT6=
EXTT7=
EXTT8=
EXTT9=
EXTT10=
EXTT11=
EXTT12=
PLAYORDER=
